<svg width="20" height="20" viewBox="0 0 20 20" fill="none" xmlns="http://www.w3.org/2000/svg">
<path fill-rule="evenodd" clip-rule="evenodd" d="M8.78378 8.39286V10.1607H7.08108V12.0089H8.94595V17.3929H8.78378C7 17.1518 5.37838 16.1875 4.24324 14.9018C3.10811 13.6161 2.45946 11.9286 2.45946 10.0804C2.45946 7.99107 3.27027 6.14286 4.64865 4.85714C6.02703 3.49107 7.89189 2.6875 9.91892 2.6875C12.027 2.6875 13.8919 3.49107 15.1892 4.85714C16.5676 6.22321 17.3784 8.07143 17.3784 10.0804C17.3784 11.9286 16.7297 13.6161 15.5946 14.9018C14.4595 16.1875 12.8378 17.1518 11.0541 17.3929H10.8919V12.0089H12.5946L12.8378 10.1607H10.8108V8.63393C10.8108 8.3125 10.8919 7.91071 11.1351 7.66964C11.3784 7.42857 11.7027 7.34821 12.1081 7.34821H12.9189V5.82143C12.6757 5.82143 12.027 5.66071 11.4595 5.66071C10.6486 5.66071 10 5.90179 9.51351 6.38393C9.10811 6.86607 8.78378 7.50893 8.78378 8.39286ZM10 19C10.4865 19 11.0541 18.9196 11.3784 18.8393C12.4324 18.6786 13.4865 18.3571 14.3784 17.7946C15.3514 17.3125 16.1622 16.5893 16.8108 15.7857C17.4595 14.9821 18.027 14.0982 18.4324 13.0536C18.7568 12.0893 19 11.0446 19 9.91964C19 8.71429 18.7568 7.50893 18.3514 6.46429C17.8649 5.33929 17.2162 4.375 16.4054 3.57143C15.5946 2.76786 14.5405 2.04464 13.4865 1.64286C12.4324 1.24107 11.2162 1 10 1C8.78378 1 7.56757 1.24107 6.51351 1.64286C5.37838 2.125 4.40541 2.76786 3.59459 3.57143C2.78378 4.375 2.05405 5.41964 1.64865 6.46429C1.24324 7.50893 1 8.71429 1 9.91964C1 11.0446 1.16216 12.0893 1.56757 13.0536C1.97297 14.0179 2.45946 14.9821 3.18919 15.7857C3.91892 16.5893 4.72973 17.2321 5.62162 17.7946C6.51351 18.2768 7.56757 18.6786 8.62162 18.8393C9.02703 18.9196 9.51351 19 10.0811 19H10Z" fill="black"/>
</svg>
