<svg width="20" height="20" viewBox="0 0 20 20" fill="none" xmlns="http://www.w3.org/2000/svg">
<path fill-rule="evenodd" clip-rule="evenodd" d="M4.6 2.87826C4.2087 3.03478 3.89565 3.26957 3.58261 3.58261C3.26957 3.89565 3.03478 4.2087 2.87826 4.6C2.72174 4.91304 2.56522 5.38261 2.56522 6.32174C2.48696 7.26087 2.48696 7.57391 2.48696 10C2.48696 12.4261 2.48696 12.7391 2.56522 13.6783C2.64348 14.5391 2.72174 15.087 2.87826 15.4C3.03478 15.7913 3.26957 16.1043 3.58261 16.4174C3.89565 16.7304 4.2087 16.9652 4.6 17.1217C4.91304 17.2783 5.38261 17.4348 6.32174 17.4348C7.26087 17.513 7.57391 17.513 10 17.513C12.4261 17.513 12.7391 17.513 13.6783 17.4348C14.5391 17.3565 15.087 17.2783 15.4 17.1217C15.7913 16.9652 16.1043 16.7304 16.4174 16.4174C16.7304 16.1043 16.9652 15.7913 17.1217 15.4C17.2783 15.087 17.4348 14.6174 17.4348 13.6783C17.513 12.7391 17.513 12.4261 17.513 10C17.513 7.57391 17.513 7.26087 17.4348 6.32174C17.3565 5.46087 17.2783 4.91304 17.1217 4.6C16.9652 4.2087 16.7304 3.89565 16.4174 3.58261C16.1043 3.26957 15.7913 3.03478 15.4 2.87826C15.087 2.72174 14.6174 2.56522 13.6783 2.56522C12.7391 2.48696 12.4261 2.48696 10 2.48696C7.57391 2.48696 7.26087 2.48696 6.32174 2.56522C5.46087 2.64348 4.91304 2.72174 4.6 2.87826ZM14.6174 6.63478C13.913 6.63478 13.4435 6.08696 13.4435 5.46087C13.4435 4.75652 13.9913 4.28696 14.6174 4.28696C15.3217 4.28696 15.7913 4.83478 15.7913 5.46087C15.7913 6.16522 15.2435 6.63478 14.6174 6.63478ZM6.55652 10C6.55652 8.04348 8.12174 6.55652 10 6.55652C11.9565 6.55652 13.4435 8.12174 13.4435 10C13.4435 11.9565 11.8783 13.4435 10 13.4435C8.04348 13.4435 6.55652 11.8783 6.55652 10ZM3.1913 1.86087C3.42609 1.70435 3.73913 1.54783 4.05217 1.46957C4.28696 1.3913 4.52174 1.31304 4.91304 1.23478C5.22609 1.15652 5.69565 1.07826 6.24348 1.07826C6.71304 1.07826 7.02609 1.07826 7.57391 1C8.35652 1 9.06087 1 10 1C10.9391 1 11.6435 1 12.4261 1C12.9739 1 13.287 1 13.7565 1.07826C14.3043 1.07826 14.6957 1.15652 15.087 1.23478C15.4783 1.31304 15.713 1.3913 15.9478 1.46957C16.2609 1.62609 16.5739 1.70435 16.8087 1.86087C17.0435 2.01739 17.2783 2.25217 17.513 2.48696C17.7478 2.72174 17.9043 2.95652 18.1391 3.1913C18.2957 3.42609 18.4522 3.73913 18.5304 4.05217C18.6087 4.28696 18.687 4.52174 18.7652 4.91304C18.8435 5.22609 18.9217 5.69565 18.9217 6.24348C18.9217 6.71304 18.9217 7.02609 19 7.57391C19 8.35652 19 9.06087 19 10C19 11.0174 19 11.6435 19 12.4261C19 12.9739 19 13.287 18.9217 13.7565C18.9217 14.3043 18.8435 14.6957 18.7652 15.087C18.687 15.4783 18.6087 15.713 18.5304 15.9478C18.3739 16.2609 18.2957 16.5739 18.1391 16.8087C17.9826 17.1217 17.7478 17.3565 17.513 17.513C17.2783 17.7478 17.0435 17.9043 16.8087 18.1391C16.5739 18.2957 16.2609 18.4522 15.9478 18.5304C15.713 18.6087 15.4783 18.687 15.087 18.7652C14.7739 18.8435 14.3043 18.9217 13.7565 18.9217C13.287 18.9217 12.9739 18.9217 12.4261 19C11.6435 19 10.9391 19 10 19C8.98261 19 8.35652 19 7.57391 19C7.02609 19 6.71304 19 6.24348 18.9217C5.69565 18.9217 5.30435 18.8435 4.91304 18.7652C4.52174 18.687 4.28696 18.6087 4.05217 18.5304C3.73913 18.3739 3.42609 18.2957 3.1913 18.1391C2.87826 17.9826 2.64348 17.7478 2.48696 17.513C2.25217 17.2783 2.09565 17.0435 1.86087 16.8087C1.70435 16.5739 1.54783 16.2609 1.46957 15.9478C1.3913 15.713 1.31304 15.4783 1.23478 15.087C1.15652 14.7739 1.07826 14.3043 1.07826 13.7565C1.07826 13.287 1.07826 12.9739 1 12.4261C1 11.6435 1 10.9391 1 10C1 8.98261 1 8.35652 1 7.57391C1 7.02609 1 6.71304 1.07826 6.24348C1.07826 5.69565 1.15652 5.30435 1.23478 4.91304C1.31304 4.52174 1.3913 4.28696 1.46957 4.05217C1.62609 3.73913 1.70435 3.42609 1.86087 3.1913C2.01739 2.95652 2.25217 2.72174 2.48696 2.48696C2.72174 2.25217 2.95652 2.09565 3.1913 1.86087ZM8.5913 8.5913C8.2 8.98261 8.04348 9.45217 8.04348 10C8.04348 10.5478 8.27826 11.0174 8.5913 11.4087C8.90435 11.7217 9.45217 11.9565 10 11.9565C10.5478 11.9565 11.0174 11.7217 11.4087 11.4087C11.7217 11.0957 11.9565 10.5478 11.9565 10C11.9565 9.45217 11.7217 8.98261 11.4087 8.5913C11.0174 8.2 10.5478 8.04348 10 8.04348C9.45217 8.04348 8.98261 8.27826 8.5913 8.5913Z" fill="black"/>
</svg>
