<svg width="20" height="20" viewBox="0 0 20 20" fill="none" xmlns="http://www.w3.org/2000/svg">
<path fill-rule="evenodd" clip-rule="evenodd" d="M5.23471 12.9137L1.48082 11.5901L1.31398 11.5019C1.31398 11.5019 -0.52125 10.7078 0.146108 8.67837C0.229528 8.41366 0.312947 8.14896 0.563206 7.97249C0.646626 7.79602 0.813466 7.70778 1.06372 7.53131C2.06476 6.82543 16.2461 1.44308 16.83 1.17837C16.9969 1.09014 17.9145 0.82543 18.6653 1.17837C18.9155 1.26661 19.1658 1.44308 19.4161 1.61955C19.6663 1.88425 19.8332 2.14896 19.9166 2.5019C20 2.67837 20 2.85484 20 3.03131C20 3.11955 20 3.29602 20 3.47249C20 3.64896 20 3.73719 20 3.73719C20 3.82543 20 3.73719 20 3.82543C19.9166 5.5019 17.2471 16.8843 17.2471 16.9725C17.2471 16.9725 16.7466 18.9137 14.9948 19.0019C14.7446 19.0019 14.4109 19.0019 14.0772 18.9137C13.7435 18.8254 13.4098 18.649 13.0762 18.296C12.6591 17.9431 11.9917 17.4137 11.1575 16.796C10.9073 16.6195 7.48704 14.0607 7.40362 14.0607C6.98652 13.796 6.73627 13.3548 6.65285 12.9137C6.15233 13.1784 5.90207 13.0901 5.40155 12.9137H5.23471ZM17.9979 2.85484C18.0813 2.85484 18.1648 2.94308 18.2482 3.11955C18.2482 3.20778 18.2482 3.29602 18.2482 3.47249C18.2482 3.56072 18.2482 3.64896 18.2482 3.82543C18.1648 5.32543 15.4953 16.6195 15.4953 16.6195C15.4953 16.6195 15.3285 17.2372 14.7446 17.3254C14.5777 17.3254 14.244 17.3254 13.9938 17.0607C12.9093 16.0019 8.9886 13.2666 8.1544 12.7372C8.07098 12.7372 8.07098 12.649 8.07098 12.649C8.07098 12.5607 8.1544 12.4725 8.1544 12.4725C8.1544 12.4725 14.828 6.20778 15.0782 5.5019C15.0782 5.41366 15.0782 5.41366 14.9948 5.41366C14.5777 5.59014 6.81968 10.7078 5.98549 11.3254C5.90207 11.3254 5.81865 11.3254 5.81865 11.3254L2.06476 10.0019C2.06476 10.0019 1.64766 9.82543 1.73108 9.38425C1.73108 9.29602 1.8145 9.20778 1.98134 9.11955C2.81554 8.5019 17.3306 2.94308 17.3306 2.94308C17.3306 2.94308 17.7477 2.76661 17.9979 2.85484Z" fill="black"/>
</svg>
