<svg width="137" height="28" viewBox="0 0 137 28" fill="none" xmlns="http://www.w3.org/2000/svg">
<g id="Group 8279">
<path id="Vector" d="M12.4709 22.1231H15.3563C17.8117 22.1231 19.726 21.4174 21.0993 20.0058C22.4727 18.5943 23.1663 16.572 23.1663 13.9389C23.1663 11.333 22.4727 9.33786 21.0855 7.95347C19.6983 6.56908 17.7978 5.87688 15.3702 5.87688H12.4848L12.4709 22.1231ZM5.46558 28V0.0135803H15.6199C20.156 0.0135803 23.7489 1.24867 26.3984 3.70529C29.048 6.17548 30.3797 9.58216 30.3797 13.9389C30.3797 18.3228 29.048 21.7567 26.3984 24.254C23.7489 26.7513 20.156 27.9864 15.6199 27.9864H5.46558V28Z" fill="#2B2A29"/>
<path id="Vector_2" d="M42.0045 16.6534H47.6504L46.0828 11.2109L44.9176 6.4062H44.8344C44.4043 8.44207 44.0159 10.0436 43.6691 11.2244L42.0045 16.6534ZM31.4479 28L40.8947 0.0271454H48.5243L57.9295 28H50.8132L49.0653 22.1367H40.2427L38.3423 28H31.4479Z" fill="#2B2A29"/>
<path id="Vector_3" d="M61.342 28V0.0135803H78.8624V5.89046H68.3474V11.7538H77.059V17.6306H68.3474V28H61.342Z" fill="#2B2A29"/>
<path id="Vector_4" d="M83.0795 28V0.0135733H90.2097L98.1167 13.0567C98.3803 13.6403 98.6994 14.3325 99.0878 15.1333C99.4762 15.9476 99.7953 16.6127 100.045 17.1284L100.406 17.8749H100.558C100.35 15.8662 100.239 14.2647 100.239 13.0974V0H107.231V27.9728H100.198L92.2489 14.9433C91.9021 14.4004 91.5414 13.7353 91.153 12.921C90.7646 12.1066 90.4455 11.4416 90.1958 10.9258L89.8351 10.1793H89.7519C89.96 12.1881 90.071 13.776 90.071 14.9569V27.9864L83.0795 28Z" fill="#2B2A29"/>
<path id="Vector_5" d="M121.075 16.6534H126.707L125.139 11.2109L123.974 6.4062H123.891C123.461 8.44207 123.073 10.0436 122.726 11.2244L121.075 16.6534ZM110.518 28L119.965 0.0271454H127.595L137 28H129.884L128.136 22.1367H119.313L117.413 28H110.518Z" fill="#2B2A29"/>
<path id="Vector_6" fill-rule="evenodd" clip-rule="evenodd" d="M5.46557 0.0135803H0V28H5.46557V0.0135803Z" fill="#00A0E3"/>
</g>
</svg>
